<?xml version="1.0" encoding="UTF-8"?>
<svg version="1.1" xmlns="http://www.w3.org/2000/svg" width="205" height="203">
<path d="M0 0 C2.63812481 2.23571189 5.2001766 4.54279252 7.75585938 6.87255859 C8.75359375 7.74654297 8.75359375 7.74654297 9.77148438 8.63818359 C26.47192462 24.08999279 37.32537671 48.44209658 38.97900391 70.90356445 C40.10637568 101.8672451 32.63808584 127.28268998 11.75585938 150.87255859 C11.14355469 151.56865234 10.53125 152.26474609 9.90039062 152.98193359 C-5.19117025 169.07101768 -28.38094062 181.38248325 -50.55989075 182.47267151 C-53.93597388 182.55914357 -57.30577773 182.56635036 -60.68261719 182.52441406 C-63.24369064 182.49756331 -65.80038465 182.5243485 -68.36132812 182.55615234 C-94.36543446 182.61213216 -118.10300575 171.13612549 -136.55664062 153.06005859 C-149.51786001 139.82740006 -158.84737915 122.85299895 -163.24414062 104.87255859 C-163.4684375 104.00501953 -163.69273437 103.13748047 -163.92382812 102.24365234 C-169.24684661 77.19629823 -164.63219092 49.55203 -151.22070312 27.81005859 C-135.67310697 4.70374968 -114.64245603 -12.42772464 -87.24414062 -19.12744141 C-86.37660156 -19.35173828 -85.5090625 -19.57603516 -84.61523438 -19.80712891 C-55.52926237 -25.98842718 -23.03374116 -18.87595568 0 0 Z M-102.24414062 -6.12744141 C-102.83936523 -5.85303223 -103.43458984 -5.57862305 -104.04785156 -5.29589844 C-126.40219853 5.22961267 -143.72546872 23.70627535 -152.61914062 46.81005859 C-161.594743 71.77213233 -160.43340408 98.80846956 -149.24414062 122.87255859 C-137.8721052 145.95178089 -117.64813283 163.23857659 -93.36914062 171.58349609 C-70.53757593 178.95440067 -46.14069926 177.59818743 -24.24414062 167.87255859 C-22.75140625 167.22673828 -22.75140625 167.22673828 -21.22851562 166.56787109 C1.58335876 155.99797118 18.37447048 135.87150912 27.00585938 112.48583984 C28.03127987 109.30025045 28.92965837 106.11508616 29.75585938 102.87255859 C29.98144531 102.04111328 30.20703125 101.20966797 30.43945312 100.35302734 C35.89707021 76.4524284 30.21954378 50.15890546 17.63183594 29.46191406 C3.52509751 7.67995835 -19.12341678 -7.23997624 -44.30273438 -12.80322266 C-63.81768694 -16.38461844 -84.19361995 -14.45677805 -102.24414062 -6.12744141 Z " fill="#2DCBD2" transform="translate(165.244140625,21.12744140625)"/>
<path d="M0 0 C6.88252799 0.4746571 10.56978344 2.05578948 15.90234375 6.6328125 C19.18481028 9.34194994 21.1303338 10.90512732 25.4375 11.375 C29.85689348 9.66926918 32.46160614 7.09841699 35.87890625 3.8828125 C39.79940825 0.40273521 43.29457498 -0.19940235 48.375 0 C54.30623314 0.82155594 58.53061237 4.34017117 62.51953125 8.63671875 C65.11031394 11.0224263 67.58194572 10.94206688 71 11 C74.4551358 9.16666264 77.05933165 6.94808481 80 4.375 C84.22461039 1.03051677 87.64346145 -0.28234133 93 0.125 C97.71434115 0.89578582 100.9572432 3.1657969 104.4921875 6.33984375 C107.94386068 9.42488843 110.30380131 11 115 11 C118.3471405 9.54099004 120.7883684 7.32701553 123.5 4.9375 C127.8993608 1.15046993 130.94137706 -0.22374706 136.8125 0 C143.09793781 0.76926254 147.28467994 4.0501104 151.4921875 8.62109375 C153.92229252 10.84344368 156.86413373 11.23082525 160 12 C160 14.97 160 17.94 160 21 C153.5733069 21.6694472 150.08375984 19.8624048 145 16 C143.9949087 15.06796045 142.99451983 14.13081149 142 13.1875 C138.70082035 10.78184817 137.00894962 10.13528529 133.0078125 10.37109375 C129.71973359 11.4010173 127.96044664 13.72803022 125.7109375 16.2421875 C122.15790851 19.89255975 117.89904668 21.13918504 112.9375 21.375 C107.37417127 20.84515917 103.17512054 18.69337586 99 15 C99 14.34 99 13.68 99 13 C95.07844114 10.38562742 91.55763232 10.78296989 87 11 C86.01 11.33 85.02 11.66 84 12 C83.67 12.99 83.34 13.98 83 15 C81.4765625 16.3515625 81.4765625 16.3515625 79.625 17.625 C79.01914063 18.05039063 78.41328125 18.47578125 77.7890625 18.9140625 C73.46409374 21.53926188 68.89887031 21.70779133 64 21 C59.71912206 19.13099351 56.33783467 16.33595803 52.9375 13.1875 C49.22251928 10.42102499 47.55525606 10.48686807 43 11 C39.93314764 12.87391466 39.93314764 12.87391466 37.25 15.4375 C32.1259772 20.01047565 29.04196574 21.32725665 22.265625 21.20703125 C16.95978967 20.72218768 13.76384762 17.84001662 10 14.375 C6.75997445 11.41536128 4.52809226 10.11320231 0 10 C0 6.7 0 3.4 0 0 Z " fill="#24CAD1" transform="translate(25,100)"/>
<path d="M0 0 C3.66666667 0 7.33333333 0 11 0 C11.66 0.66 12.32 1.32 13 2 C16.20319784 2.25288404 18.92784561 1.91026797 22 1 C22 1.66 22 2.32 22 3 C23.36125 2.7525 23.36125 2.7525 24.75 2.5 C28.10096323 1.9844672 30.99554713 1.75567363 34.3125 2.5625 C37.7162422 3.11659757 40.62320029 2.59590583 44 2 C44.02689216 3.47906892 44.04634621 4.95827483 44.0625 6.4375 C44.07410156 7.26121094 44.08570313 8.08492187 44.09765625 8.93359375 C44 11 44 11 43 12 C40.36647712 12.21352888 38.5951836 12.34685303 36.27734375 10.99609375 C33.08456129 9.5995937 30.34169113 9.80986384 26.875 9.875 C25.63492188 9.89304688 24.39484375 9.91109375 23.1171875 9.9296875 C21.57417969 9.96449219 21.57417969 9.96449219 20 10 C15.33333333 10 10.66666667 10 6 10 C5.154375 10.020625 4.30875 10.04125 3.4375 10.0625 C1 10 1 10 0 9 C-0.07179964 7.48071962 -0.08392007 5.95832518 -0.0625 4.4375 C-0.05347656 3.61121094 -0.04445313 2.78492187 -0.03515625 1.93359375 C-0.02355469 1.29550781 -0.01195313 0.65742187 0 0 Z M22 5 C23 7 23 7 23 7 Z M37 6 C38 8 38 8 38 8 Z " fill="#9FE6E9" transform="translate(79,125)"/>
<path d="M0 0 C1 1 1 1 1 4.9375 C0.979375 5.64777344 0.95875 6.35804687 0.9375 7.08984375 C0.86973661 9.087577 0.86973661 9.087577 2 11 C2.3125 13.9375 2.3125 13.9375 2 17 C-0.24097518 19.25675669 -1.58501897 19.95069532 -4.76171875 20.328125 C-6.20998047 20.28945312 -6.20998047 20.28945312 -7.6875 20.25 C-8.66074219 20.23453125 -9.63398437 20.2190625 -10.63671875 20.203125 C-13 20 -13 20 -14 19 C-14.08669432 17.5112814 -14.10703494 16.018555 -14.09765625 14.52734375 C-14.09443359 13.62822266 -14.09121094 12.72910156 -14.08789062 11.80273438 C-14.07951172 10.85720703 -14.07113281 9.91167969 -14.0625 8.9375 C-14.05798828 7.98810547 -14.05347656 7.03871094 -14.04882812 6.06054688 C-14.0370011 3.70696935 -14.02052025 1.35351523 -14 -1 C-8.63636923 -1.9132321 -5.16537229 -1.85953403 0 0 Z M-9 3 C-9 4.32 -9 5.64 -9 7 C-7.35 7 -5.7 7 -4 7 C-4 5.68 -4 4.36 -4 3 C-5.65 3 -7.3 3 -9 3 Z M-9 11 C-9 12.32 -9 13.64 -9 15 C-7.35 15 -5.7 15 -4 15 C-3.67 14.34 -3.34 13.68 -3 13 C-3.33 12.34 -3.66 11.68 -4 11 C-5.65 11 -7.3 11 -9 11 Z " fill="#65D9DC" transform="translate(135,61)"/>
<path d="M0 0 C0.78375 0.04125 1.5675 0.0825 2.375 0.125 C2.705 0.785 3.035 1.445 3.375 2.125 C6.83321999 3.15311946 8.95960658 3.02907473 12.375 2.125 C18.9233871 1.89919355 18.9233871 1.89919355 21.375 3.125 C22.468125 2.96 23.56125 2.795 24.6875 2.625 C28.04419311 2.16985517 30.15634286 2.24718442 33.375 3.125 C33.375 5.435 33.375 7.745 33.375 10.125 C19 10.125 19 10.125 14.375 9.125 C14.375 7.805 14.375 6.485 14.375 5.125 C13.715 5.125 13.055 5.125 12.375 5.125 C12.375 6.775 12.375 8.425 12.375 10.125 C9.91637599 10.17883848 7.4589245 10.21859038 5 10.25 C3.95199219 10.27513672 3.95199219 10.27513672 2.8828125 10.30078125 C1.04602514 10.31844267 -0.79101963 10.22803261 -2.625 10.125 C-4.625 8.125 -4.625 8.125 -4.875 5.125 C-4.55416156 1.2749387 -3.94115238 0.18767392 0 0 Z M-1.625 3.125 C-1.625 4.445 -1.625 5.765 -1.625 7.125 C-0.305 7.125 1.015 7.125 2.375 7.125 C2.375 5.805 2.375 4.485 2.375 3.125 C1.055 3.125 -0.265 3.125 -1.625 3.125 Z M24.375 5.125 C24.045 5.785 23.715 6.445 23.375 7.125 C24.695 7.125 26.015 7.125 27.375 7.125 C27.375 6.465 27.375 5.805 27.375 5.125 C26.385 5.125 25.395 5.125 24.375 5.125 Z " fill="#93E3E5" transform="translate(42.625,124.875)"/>
<path d="M0 0 C0.89203125 0.11085937 1.7840625 0.22171875 2.703125 0.3359375 C3.37859375 0.43132813 4.0540625 0.52671875 4.75 0.625 C4.75 1.945 4.75 3.265 4.75 4.625 C1.78 4.625 -1.19 4.625 -4.25 4.625 C-4.25 5.615 -4.25 6.605 -4.25 7.625 C-3.3425 7.686875 -2.435 7.74875 -1.5 7.8125 C1.75 8.625 1.75 8.625 4.1875 10.8125 C5.75 13.625 5.75 13.625 5.6875 16.8125 C4.75 19.625 4.75 19.625 1.75 21.625 C-0.44140625 21.85546875 -0.44140625 21.85546875 -2.8125 21.8125 C-3.59753906 21.80605469 -4.38257813 21.79960938 -5.19140625 21.79296875 C-7.25 21.625 -7.25 21.625 -9.25 20.625 C-9.25 19.305 -9.25 17.985 -9.25 16.625 C-6.28 16.625 -3.31 16.625 -0.25 16.625 C-0.25 15.635 -0.25 14.645 -0.25 13.625 C-1.1575 13.5425 -2.065 13.46 -3 13.375 C-6.76436571 12.50630022 -8.12817174 11.85017896 -10.25 8.625 C-10.25 5 -10.25 5 -9.25 1.625 C-6.10496949 -0.61335505 -3.73857565 -0.49191785 0 0 Z " fill="#48D0D6" transform="translate(148.25,59.375)"/>
<path d="M0 0 C0.77601562 0.07863281 1.55203125 0.15726563 2.3515625 0.23828125 C4.375 0.6875 4.375 0.6875 6.375 2.6875 C6.92566609 5.74224769 6.92881008 8.63315349 6.375 11.6875 C3.20066993 14.59730256 1.7225117 14.6875 -2.625 14.6875 C-2.955 16.9975 -3.285 19.3075 -3.625 21.6875 C-5.275 21.6875 -6.925 21.6875 -8.625 21.6875 C-8.625 14.7575 -8.625 7.8275 -8.625 0.6875 C-5.15054564 -0.18111359 -3.41314825 -0.38240959 0 0 Z M-3.625 4.6875 C-3.625 6.3375 -3.625 7.9875 -3.625 9.6875 C-1.975 9.3575 -0.325 9.0275 1.375 8.6875 C1.045 7.3675 0.715 6.0475 0.375 4.6875 C-0.945 4.6875 -2.265 4.6875 -3.625 4.6875 Z " fill="#80DFE1" transform="translate(65.625,59.3125)"/>
<path d="M0 0 C0.80824219 0.10183594 1.61648437 0.20367187 2.44921875 0.30859375 C3.06410156 0.39238281 3.67898437 0.47617187 4.3125 0.5625 C4.3125 1.8825 4.3125 3.2025 4.3125 4.5625 C1.23632812 4.85546875 1.23632812 4.85546875 -1.83984375 5.1484375 C-2.44957031 5.28507812 -3.05929688 5.42171875 -3.6875 5.5625 C-5.05702673 8.30155345 -4.81371361 10.53337332 -4.6875 13.5625 C-4.3575 14.2225 -4.0275 14.8825 -3.6875 15.5625 C-1.79216658 16.02773063 -1.79216658 16.02773063 0.375 16.1875 C1.674375 16.31125 2.97375 16.435 4.3125 16.5625 C4.3125 17.8825 4.3125 19.2025 4.3125 20.5625 C1.07112098 22.18318951 -2.18414069 22.11178387 -5.6875 21.5625 C-8.6875 19.8125 -8.6875 19.8125 -10.6875 16.5625 C-11.3863233 11.63713961 -11.91127079 6.66496668 -9.34375 2.25390625 C-6.42765476 -0.72408724 -3.87467566 -0.50539248 0 0 Z " fill="#37CDD2" transform="translate(114.6875,59.4375)"/>
<path d="M0 0 C5.61 0 11.22 0 17 0 C17 1.32 17 2.64 17 4 C15.02 4 13.04 4 11 4 C11 9.28 11 14.56 11 20 C9.35 20.33 7.7 20.66 6 21 C5 20 5 20 4.90234375 16.40234375 C4.9090178 14.91403133 4.92097817 13.42573568 4.9375 11.9375 C4.94201172 11.17888672 4.94652344 10.42027344 4.95117188 9.63867188 C4.9629932 7.75908129 4.98092922 5.87953101 5 4 C3.35 4 1.7 4 0 4 C0 2.68 0 1.36 0 0 Z " fill="#2DC9CF" transform="translate(73,60)"/>
<path d="M0 0 C0.99 0 1.98 0 3 0 C3 0.66 3 1.32 3 2 C3.69867188 1.97679688 4.39734375 1.95359375 5.1171875 1.9296875 C6.02726562 1.91164063 6.93734375 1.89359375 7.875 1.875 C9.23238281 1.84019531 9.23238281 1.84019531 10.6171875 1.8046875 C13 2 13 2 15 4 C15.125 6.625 15.125 6.625 15 9 C11.98968256 9.93423645 11.13349732 10.04449911 8 9 C8 7.68 8 6.36 8 5 C7.34 5 6.68 5 6 5 C6 6.65 6 8.3 6 10 C-6.375 10 -6.375 10 -11 9 C-11 6.69 -11 4.38 -11 2 C-7.33333333 2 -3.66666667 2 0 2 C0 1.34 0 0.68 0 0 Z M-2 5 C-2 5.66 -2 6.32 -2 7 C-1.34 7 -0.68 7 0 7 C0 6.34 0 5.68 0 5 C-0.66 5 -1.32 5 -2 5 Z " fill="#74DCDF" transform="translate(161,125)"/>
<path d="M0 0 C1.98 0 3.96 0 6 0 C6 1.32 6 2.64 6 4 C6.33 3.34 6.66 2.68 7 2 C9.47923801 1.97314905 11.9581884 1.95323453 14.4375 1.9375 C15.14455078 1.92912109 15.85160156 1.92074219 16.58007812 1.91210938 C18.38693559 1.90346412 20.19387603 1.94779989 22 2 C23 3 23 3 23.0625 6.5625 C23.041875 7.696875 23.02125 8.83125 23 10 C15.33333333 10 7.66666667 10 0 10 C0.2784375 9.0409375 0.2784375 9.0409375 0.5625 8.0625 C0.706875 7.381875 0.85125 6.70125 1 6 C0.67 5.67 0.34 5.34 0 5 C-0.04063832 3.33382885 -0.042721 1.66611905 0 0 Z " fill="#74DBDE" transform="translate(126,125)"/>
<path d="M0 0 C2.3406065 -0.27769908 4.67624308 -0.60539977 7 -1 C7.02689216 0.47906892 7.04634621 1.95827483 7.0625 3.4375 C7.07410156 4.26121094 7.08570312 5.08492187 7.09765625 5.93359375 C7 8 7 8 6 9 C2.37940768 9.29356154 0.12296038 8.85064319 -3 7 C-3 5.35 -3 3.7 -3 2 C-3.66 2 -4.32 2 -5 2 C-5.33 3.32 -5.66 4.64 -6 6 C-6 4.02 -6 2.04 -6 0 C-3 -1 -3 -1 0 0 Z M0 3 C1 5 1 5 1 5 Z " fill="#87E0E3" transform="translate(116,128)"/>
<path d="M0 0 C3.3 0 6.6 0 10 0 C9.67 0.66 9.34 1.32 9 2 C3.25 2.125 3.25 2.125 1 1 C1 1.66 1 2.32 1 3 C1.66 3 2.32 3 3 3 C2.42415568 5.38564077 1.77772405 7.66682784 1 10 C1.66 10 2.32 10 3 10 C3 11.98 3 13.96 3 16 C5.31 16 7.62 16 10 16 C10 14.35 10 12.7 10 11 C10.99 10.67 11.98 10.34 13 10 C13 12.31 13 14.62 13 17 C8.71 17.66 4.42 18.32 0 19 C0 12.73 0 6.46 0 0 Z " fill="#03C0C8" transform="translate(122,61)"/>
<path d="M0 0 C0.33 0 0.66 0 1 0 C0.95117188 3.02734375 0.95117188 3.02734375 0.90234375 6.0546875 C0.87350758 8.08185404 0.87350758 8.08185404 2 10 C2.3125 12.9375 2.3125 12.9375 2 16 C-0.2591838 18.28576243 -1.5802152 18.95602813 -4.796875 19.29296875 C-5.77140625 19.25816406 -6.7459375 19.22335938 -7.75 19.1875 C-9.22726563 19.14689453 -9.22726563 19.14689453 -10.734375 19.10546875 C-11.48203125 19.07066406 -12.2296875 19.03585938 -13 19 C-8.16353702 15.77569134 -5.73060016 15.90757097 0 16 C0 13.69 0 11.38 0 9 C-2.05270463 10.84188612 -2.05270463 10.84188612 -3 13 C-3.33 12.01 -3.66 11.02 -4 10 C-5.65 10 -7.3 10 -9 10 C-7.68 9.34 -6.36 8.68 -5 8 C-6.32 7.34 -7.64 6.68 -9 6 C-7.02 6 -5.04 6 -3 6 C-2.67 4.68 -2.34 3.36 -2 2 C-2 3.32 -2 4.64 -2 6 C-1.34 6 -0.68 6 0 6 C0 4.02 0 2.04 0 0 Z " fill="#65D8DD" transform="translate(135,62)"/>
<path d="M0 0 C0.80824219 0.10183594 1.61648437 0.20367187 2.44921875 0.30859375 C3.06410156 0.39238281 3.67898437 0.47617187 4.3125 0.5625 C4.3125 1.8825 4.3125 3.2025 4.3125 4.5625 C3.03375 4.68625 1.755 4.81 0.4375 4.9375 C-3.03540936 5.25292399 -3.03540936 5.25292399 -5.6875 7.5625 C-6.6775 7.2325 -7.6675 6.9025 -8.6875 6.5625 C-9.0175 9.8625 -9.3475 13.1625 -9.6875 16.5625 C-10.0175 16.5625 -10.3475 16.5625 -10.6875 16.5625 C-10.76883791 14.64654032 -10.82684367 12.72958068 -10.875 10.8125 C-10.90980469 9.74515625 -10.94460937 8.6778125 -10.98046875 7.578125 C-10.65375336 4.21513456 -10.05660987 2.92608747 -7.6875 0.5625 C-4.59271121 -0.46909626 -3.16118607 -0.41232862 0 0 Z " fill="#78DEE1" transform="translate(114.6875,59.4375)"/>
<path d="M0 0 C0.99 0.33 1.98 0.66 3 1 C3 3.64 3 6.28 3 9 C5.64 8.67 8.28 8.34 11 8 C11.33 6.68 11.66 5.36 12 4 C12 5.65 12 7.3 12 9 C8.86501708 10.85776765 6.62528568 11.20140476 3 11 C3 13.64 3 16.28 3 19 C2.01 19 1.02 19 0 19 C0 12.73 0 6.46 0 0 Z " fill="#02BFC8" transform="translate(58,61)"/>
<path d="M0 0 C0.66 0.66 1.32 1.32 2 2 C3.32 1.34 4.64 0.68 6 0 C6 5.28 6 10.56 6 16 C4.35 16.33 2.7 16.66 1 17 C0 16 0 16 -0.09765625 12.40234375 C-0.0909822 10.91403133 -0.07902183 9.42573568 -0.0625 7.9375 C-0.05798828 7.17888672 -0.05347656 6.42027344 -0.04882812 5.63867188 C-0.0370068 3.75908129 -0.01907078 1.87953101 0 0 Z " fill="#77DFE2" transform="translate(78,64)"/>
<path d="M0 0 C3.63 0 7.26 0 11 0 C11 2.31 11 4.62 11 7 C7.5980513 9.09350689 4.94727588 9.17942163 1 9 C0.67 6.03 0.34 3.06 0 0 Z M2 3 C2 4.65 2 6.3 2 8 C3.65 7.67 5.3 7.34 7 7 C6.67 5.68 6.34 4.36 6 3 C4.68 3 3.36 3 2 3 Z " fill="#43CFD5" transform="translate(60,61)"/>
<path d="M0 0 C6.15234375 -0.09765625 6.15234375 -0.09765625 8 0 C9 1 9 1 9.0625 4.5625 C9.041875 5.696875 9.02125 6.83125 9 8 C6.03 8 3.06 8 0 8 C0 5.36 0 2.72 0 0 Z " fill="#6ED9DD" transform="translate(140,127)"/>
<path d="M0 0 C1.98 0 3.96 0 6 0 C7.125 3.75 7.125 3.75 6 6 C5.01 6 4.02 6 3 6 C3 6.66 3 7.32 3 8 C3.99 8 4.98 8 6 8 C6 8.66 6 9.32 6 10 C4.33388095 10.042721 2.66617115 10.04063832 1 10 C0 9 0 9 -0.09765625 6.93359375 C-0.08605469 6.10988281 -0.07445313 5.28617188 -0.0625 4.4375 C-0.05347656 3.61121094 -0.04445313 2.78492187 -0.03515625 1.93359375 C-0.02355469 1.29550781 -0.01195313 0.65742187 0 0 Z " fill="#6EDADE" transform="translate(79,125)"/>
<path d="M0 0 C1.65 0.33 3.3 0.66 5 1 C5 3.31 5 5.62 5 8 C1.37 8 -2.26 8 -6 8 C-6 6.02 -6 4.04 -6 2 C-5.67 2.99 -5.34 3.98 -5 5 C-3.02 4.34 -1.04 3.68 1 3 C0.67 2.01 0.34 1.02 0 0 Z " fill="#76DCDF" transform="translate(71,127)"/>
<path d="M0 0 C0.66 0.66 1.32 1.32 2 2 C1.01 2.33 0.02 2.66 -1 3 C-1 2.34 -1 1.68 -1 1 C-8.52118461 1.49459037 -14.84356097 2.49190569 -20.1875 8.25 C-21.115625 9.1575 -22.04375 10.065 -23 11 C-25.17578125 10.671875 -25.17578125 10.671875 -27 10 C-26.319375 9.62875 -25.63875 9.2575 -24.9375 8.875 C-22.52677339 7.33623833 -20.61363805 5.82913668 -18.5 3.9375 C-12.55195112 -1.18266199 -7.64313157 -1.67743065 0 0 Z " fill="#78DCDF" transform="translate(167,101)"/>
<path d="M0 0 C0.99 0 1.98 0 3 0 C3.33 2.97 3.66 5.94 4 9 C-0.29399165 10.07349791 -1.19495213 9.79682816 -5 8 C-4.0409375 7.13375 -4.0409375 7.13375 -3.0625 6.25 C-1.01776132 4.01937599 -0.41794801 2.92563609 0 0 Z " fill="#ACE9EB" transform="translate(87,125)"/>
<path d="M0 0 C0.66 1.32 1.32 2.64 2 4 C1.34 4 0.68 4 0 4 C0 4.99 0 5.98 0 7 C-3.3 7 -6.6 7 -10 7 C-10 5.68 -10 4.36 -10 3 C-6.7 3 -3.4 3 0 3 C0 2.01 0 1.02 0 0 Z " fill="#2CCAD0" transform="translate(149,73)"/>
<path d="M0 0 C0.33 0.99 0.66 1.98 1 3 C2.32 3 3.64 3 5 3 C5 3.99 5 4.98 5 6 C5.99 6.33 6.98 6.66 8 7 C5.66785852 8.20628008 3.50357861 9.1654738 1 10 C-1.56687367 6.1496895 -0.83288724 4.41430237 0 0 Z " fill="#5ED8DD" transform="translate(139,61)"/>
<path d="M0 0 C2.31 0.33 4.62 0.66 7 1 C6.67 3.31 6.34 5.62 6 8 C4.68 7.34 3.36 6.68 2 6 C2 5.34 2 4.68 2 4 C1.34 4 0.68 4 0 4 C0 2.68 0 1.36 0 0 Z " fill="#97E4E6" transform="translate(133,127)"/>
<path d="M0 0 C2.475 0.495 2.475 0.495 5 1 C5 3.31 5 5.62 5 8 C3.35 8 1.7 8 0 8 C0.185625 7.236875 0.37125 6.47375 0.5625 5.6875 C1.22819173 2.91032625 1.22819173 2.91032625 0 0 Z " fill="#65D6DA" transform="translate(46,127)"/>
<path d="M0 0 C2.97 0.99 5.94 1.98 9 3 C9 3.33 9 3.66 9 4 C7.02 4 5.04 4 3 4 C3 5.65 3 7.3 3 9 C4.98 8.67 6.96 8.34 9 8 C9 8.66 9 9.32 9 10 C6.69 10 4.38 10 2 10 C2 8.02 2 6.04 2 4 C1.34 4 0.68 4 0 4 C0 2.68 0 1.36 0 0 Z " fill="#3CCED4" transform="translate(123,67)"/>
<path d="M0 0 C0.66 0 1.32 0 2 0 C0.49637741 3.78716158 -1.05487001 7.55245187 -2.625 11.3125 C-3.07101563 12.38113281 -3.51703125 13.44976562 -3.9765625 14.55078125 C-4.31429688 15.35902344 -4.65203125 16.16726562 -5 17 C-5.33 17 -5.66 17 -6 17 C-6.34884724 12.10160332 -5.46792622 9.34104063 -3 5.125 C-2.443125 4.15820312 -1.88625 3.19140625 -1.3125 2.1953125 C-0.879375 1.47085938 -0.44625 0.74640625 0 0 Z " fill="#52D2D6" transform="translate(18,53)"/>
<path d="M0 0 C0.33 0.66 0.66 1.32 1 2 C0.00390625 4.6015625 0.00390625 4.6015625 -1.4375 7.625 C-1.91058594 8.62789062 -2.38367188 9.63078125 -2.87109375 10.6640625 C-3.24363281 11.43492187 -3.61617187 12.20578125 -4 13 C-4.66 12.67 -5.32 12.34 -6 12 C-5.57405412 10.55903414 -5.13373367 9.12231288 -4.6875 7.6875 C-4.44386719 6.88699219 -4.20023438 6.08648437 -3.94921875 5.26171875 C-2.95817977 2.90035427 -1.91925057 1.66120007 0 0 Z " fill="#5BD4D9" transform="translate(197,137)"/>
<path d="M0 0 C0.99 0 1.98 0 3 0 C3 1.32 3 2.64 3 4 C3.66 4 4.32 4 5 4 C5.33 2.68 5.66 1.36 6 0 C6 1.65 6 3.3 6 5 C2.98968256 5.93423645 2.13349732 6.04449911 -1 5 C-0.67 3.35 -0.34 1.7 0 0 Z " fill="#A5E8EA" transform="translate(170,129)"/>
<path d="M0 0 C2.5 0.8125 2.5 0.8125 5.5 2.8125 C4.406875 2.915625 3.31375 3.01875 2.1875 3.125 C-1.35559629 3.78557727 -2.43243723 4.0152092 -4.5 6.8125 C-5.1875 5 -5.1875 5 -5.5 2.8125 C-3.86377213 0.1763551 -3.11852155 -0.23388912 0 0 Z " fill="#AFEAEC" transform="translate(68.5,127.1875)"/>
<path d="M0 0 C-1.36911804 3.1489715 -2.8752136 5.0478487 -5.5 7.25 C-6.41265625 8.03117187 -6.41265625 8.03117187 -7.34375 8.828125 C-9 10 -9 10 -11 10 C-11 9.34 -11 8.68 -11 8 C-10.01 8 -9.02 8 -8 8 C-7.7525 7.4225 -7.505 6.845 -7.25 6.25 C-5.58207452 3.24773413 -3.67725381 0 0 0 Z " fill="#53D2D8" transform="translate(156,109)"/>
<path d="M0 0 C3.3 0 6.6 0 10 0 C10 0.99 10 1.98 10 3 C7.03 3 4.06 3 1 3 C0.67 2.01 0.34 1.02 0 0 Z " fill="#14C3C9" transform="translate(108,61)"/>
<path d="M0 0 C1.65 0 3.3 0 5 0 C5 2.31 5 4.62 5 7 C4.67 5.68 4.34 4.36 4 3 C3.34 3 2.68 3 2 3 C2 4.65 2 6.3 2 8 C1.34 8 0.68 8 0 8 C0 5.36 0 2.72 0 0 Z " fill="#53D2D7" transform="translate(91,127)"/>
<path d="M0 0 C7.48291572 6.15034169 7.48291572 6.15034169 10 10 C9.01 10 8.02 10 7 10 C7 9.34 7 8.68 7 8 C6.401875 7.731875 5.80375 7.46375 5.1875 7.1875 C2.98180967 5.99012525 1.56416813 4.95521016 0 3 C0 2.01 0 1.02 0 0 Z " fill="#54D2D7" transform="translate(168,24)"/>
<path d="M0 0 C0 2.64 0 5.28 0 8 C-0.66 8 -1.32 8 -2 8 C-2 6.35 -2 4.7 -2 3 C-2.66 3 -3.32 3 -4 3 C-4.33 4.32 -4.66 5.64 -5 7 C-5 5.02 -5 3.04 -5 1 C-2 0 -2 0 0 0 Z " fill="#59D2D6" transform="translate(115,127)"/>
<path d="M0 0 C2.475 0.495 2.475 0.495 5 1 C5 2.32 5 3.64 5 5 C3.0625 5.5625 3.0625 5.5625 1 6 C0 5 0 5 -0.0625 2.4375 C-0.041875 1.633125 -0.02125 0.82875 0 0 Z " fill="#6AD9DD" transform="translate(91,75)"/>
<path d="M0 0 C0.99 0 1.98 0 3 0 C2.625 2.4375 2.625 2.4375 2 5 C-0.40545638 6.20272819 -1.94996953 6.10071472 -4.625 6.0625 C-5.85089844 6.04896484 -5.85089844 6.04896484 -7.1015625 6.03515625 C-8.04128906 6.01775391 -8.04128906 6.01775391 -9 6 C-9 5.67 -9 5.34 -9 5 C-6.36 5 -3.72 5 -1 5 C-0.67 3.35 -0.34 1.7 0 0 Z " fill="#68DADE" transform="translate(150,75)"/>
<path d="M0 0 C1.32 0.66 2.64 1.32 4 2 C3.01 2.495 3.01 2.495 2 3 C1.67 3.99 1.34 4.98 1 6 C-0.98 6.33 -2.96 6.66 -5 7 C-5.33 6.34 -5.66 5.68 -6 5 C-4.02 4.67 -2.04 4.34 0 4 C0 2.68 0 1.36 0 0 Z " fill="#AFEBEC" transform="translate(45,128)"/>
<path d="M0 0 C0.66 0 1.32 0 2 0 C4.15305957 3.85756507 5.39253254 6.55129785 5 11 C2.03947516 7.63576723 1.07710178 4.30840713 0 0 Z " fill="#61D6DA" transform="translate(7,139)"/>
<path d="M0 0 C0.66 0 1.32 0 2 0 C2 1.98 2 3.96 2 6 C0.35 6 -1.3 6 -3 6 C-3.33 4.68 -3.66 3.36 -4 2 C-3.34 2 -2.68 2 -2 2 C-2 2.66 -2 3.32 -2 4 C-1.34 4 -0.68 4 0 4 C0 2.68 0 1.36 0 0 Z " fill="#46D0D4" transform="translate(61,129)"/>
<path d="M0 0 C4.37859255 0.50522222 6.81651224 3.17827222 10 6 C8.68 6.33 7.36 6.66 6 7 C5.67 6.01 5.34 5.02 5 4 C4.34 4 3.68 4 3 4 C3 3.34 3 2.68 3 2 C2.01 1.67 1.02 1.34 0 1 C0 0.67 0 0.34 0 0 Z " fill="#40CCD2" transform="translate(35,104)"/>
<path d="M0 0 C2.88437779 1.29299694 4.87219421 2.65941363 7 5 C6.67 5.99 6.34 6.98 6 8 C4.99403703 7.0479279 3.99538437 6.08812654 3 5.125 C2.443125 4.59132813 1.88625 4.05765625 1.3125 3.5078125 C0 2 0 2 0 0 Z " fill="#44CDD3" transform="translate(166,30)"/>
<path d="M0 0 C3.7952131 1.49097658 5.61042731 3.75700849 8 7 C6.0625 6.6875 6.0625 6.6875 4 6 C3.67 5.01 3.34 4.02 3 3 C2.01 2.67 1.02 2.34 0 2 C0 1.34 0 0.68 0 0 Z " fill="#4ACFD5" transform="translate(29,165)"/>
<path d="M0 0 C0.33 0 0.66 0 1 0 C1.05399736 1.45792884 1.09279177 2.91642712 1.125 4.375 C1.14820312 5.18710938 1.17140625 5.99921875 1.1953125 6.8359375 C1 9 1 9 -1 11 C-1.99 10.67 -2.98 10.34 -4 10 C-3.525625 9.46375 -3.05125 8.9275 -2.5625 8.375 C-0.71813924 5.57157164 -0.37543153 3.30379742 0 0 Z " fill="#71DADE" transform="translate(71,62)"/>
<path d="M0 0 C3.82946843 1.45255699 5.12050295 3.42895561 7 7 C4.13302508 5.71480435 2.02392288 4.42870746 0 2 C0 1.34 0 0.68 0 0 Z " fill="#56D2D7" transform="translate(78,111)"/>
<path d="M0 0 C2.31 1.98 4.62 3.96 7 6 C6.01 6.33 5.02 6.66 4 7 C2 5.1875 2 5.1875 0 3 C0 2.01 0 1.02 0 0 Z " fill="#59D4D9" transform="translate(82,104)"/>
<path d="M0 0 C3.82946843 1.45255699 5.12050295 3.42895561 7 7 C4.13302508 5.71480435 2.02392288 4.42870746 0 2 C0 1.34 0 0.68 0 0 Z " fill="#5FD5DA" transform="translate(31,174)"/>
<path d="M0 0 C2.475 0.495 2.475 0.495 5 1 C5 2.65 5 4.3 5 6 C4.34 6 3.68 6 3 6 C3 4.68 3 3.36 3 2 C2.01 2 1.02 2 0 2 C0 1.34 0 0.68 0 0 Z " fill="#55D3D7" transform="translate(71,127)"/>
<path d="M0 0 C2.9375 0.8125 2.9375 0.8125 6 2 C6.33 2.99 6.66 3.98 7 5 C1.25 3.25 1.25 3.25 -1 1 C-0.67 0.67 -0.34 0.34 0 0 Z " fill="#72DADE" transform="translate(142,14)"/>
</svg>
